<?xml version="1.0" ?><svg height="60px" version="1.1" viewBox="0 0 60 60" width="60px" xmlns="http://www.w3.org/2000/svg" xmlns:xlink="http://www.w3.org/1999/xlink"><title/><desc/><defs/><g fill="none" fill-rule="evenodd" id="Page-1" stroke="none" stroke-width="1"><g id="Social_icons" transform="translate(-922.000000, -452.000000)"><g id="Google-+" transform="translate(922.000000, 452.000000)"><path d="M0,30 C0,13.4314567 13.4314567,0 30,0 C46.5685433,0 60,13.4314567 60,30 C60,46.5685433 46.5685433,60 30,60 C13.4314567,60 0,46.5685433 0,30 Z" fill="#DC4E41" id="back"/><path d="M24.5454545,29.1428571 L33.5590909,29.1428571 C33.6409091,29.6178571 33.7090909,30.0928571 33.7090909,30.7171429 C33.7090909,36.1457143 30.0545455,40 24.5454545,40 C19.2681818,40 15,35.7521429 15,30.5 C15,25.2478571 19.2681818,21 24.5454545,21 C27.1227273,21 29.2772727,21.9364286 30.9409091,23.4835714 L28.35,25.9671429 C27.6409091,25.2885714 26.4,24.5014286 24.5454545,24.5014286 C21.2863636,24.5014286 18.6272727,27.1885714 18.6272727,30.5 C18.6272727,33.8114286 21.2863636,36.4985714 24.5454545,36.4985714 C28.3227273,36.4985714 29.7409091,33.7978571 29.9590909,32.4 L24.5454545,32.4 L24.5454545,29.1428571 Z M45,29.1428571 L45,31.8571429 L42.2727273,31.8571429 L42.2727273,34.5714286 L39.5454545,34.5714286 L39.5454545,31.8571429 L36.8181818,31.8571429 L36.8181818,29.1428571 L39.5454545,29.1428571 L39.5454545,26.4285714 L42.2727273,26.4285714 L42.2727273,29.1428571 L45,29.1428571 Z" fill="#FFFFFF" id="Combined-Shape"/></g></g></g></svg>